<svg xmlns="http://www.w3.org/2000/svg" height="512" width="512" viewBox="0 0 512 512" fill-rule="evenodd" clip-rule="evenodd" stroke-linejoin="round" stroke-miterlimit="2"><path d="M256 0c141.29 0 256 114.71 256 256 0 141.29-114.71 256-256 256C114.71 512 0 397.29 0 256 0 114.71 114.71 0 256 0zm-80.037 399.871V199.95h-66.464v199.921h66.464zm239.62 0V285.225c0-61.409-32.787-89.976-76.509-89.976-35.255 0-51.047 19.389-59.889 33.007V199.95h-66.447c.881 18.757 0 199.921 0 199.921h66.446v-111.65c0-5.976.43-11.95 2.191-16.221 4.795-11.935 15.737-24.299 34.095-24.299 24.034 0 33.663 18.34 33.663 45.204v106.966h66.45zM143.18 103.55c-22.74 0-37.597 14.95-37.597 34.545 0 19.182 14.405 34.544 36.717 34.544h.429c23.175 0 37.6-15.362 37.6-34.544-.43-19.595-14.424-34.545-37.149-34.545z"/><path d="M245.587 511.424c-49.086-1.756-97.816-18.492-138.211-47.468-34.418-24.688-62.546-57.853-80.95-95.448-29.984-61.252-34.338-131.288-12.173-195.81C35.73 110.182 81.44 57.844 140.698 27.917c30.765-15.537 60.456-23.88 95.746-26.904 15.597-1.336 40.832-.428 57.222 2.06C388.14 17.41 466.897 82.898 497.78 172.798c37.708 109.762-3.082 230.836-99.596 295.626-45.066 30.253-97.32 44.977-152.598 43zM176 299.937V199.619h-66.54v200.635H176zm103.734 38.73l.139-61.588 1.356-3.71c3.29-9.005 10.832-17.936 18.2-21.55 7.183-3.523 15.079-4.652 22.78-3.256 13.135 2.382 21.423 11.446 25.138 27.494 1.038 4.48 1.063 5.848 1.22 64.387l.16 59.81h67.019v-61.587c0-37.806-.2-63.745-.518-67.175-3.903-42.152-24.422-67.986-59.589-75.026-4.78-.957-7.346-1.136-16.337-1.142-11.463-.007-15.642.536-23.689 3.078-12.861 4.062-24.806 12.863-32.946 24.273l-2.794 3.916-.135-13.486-.136-13.486h-66.777l-.126 100.318-.127 100.317h67.023zM156.814 170.69c11.304-3.816 18.926-11.456 22.32-22.373.97-3.122 1.18-4.91 1.163-9.904-.023-7.03-.836-10.673-3.685-16.508-2.214-4.537-8.421-11.126-12.802-13.592-9.16-5.153-23.025-6.435-33.833-3.126-9.281 2.842-17.019 9.202-20.956 17.226-9.03 18.403-.962 40.03 17.753 47.589 5.494 2.219 8.702 2.687 17.226 2.515 7.337-.147 8.21-.272 12.814-1.827z" fill="#eee"/></svg>